<svg version="1.2" xmlns="http://www.w3.org/2000/svg" viewBox="0 0 2000 434" width="197" height="50">
	<title>final-logo-svg</title>
	<style>
		.s0 { fill: #ffffff } 
		.s1 { fill: #7700ff } 
	</style>
	<g id="Layer">
		<g id="Layer">
			<g id="tight-bounds">
				<g id="Layer">
					<g id="Layer">
						<g id="Layer">
							<g id="Layer">
								<g id="Layer">
									<g id="textblocktransform">
										<g id="textblock">
											<g id="Layer">
												<g id="Layer">
													<g id="Layer">
														<g id="Layer">
															<path id="text-0" fill-rule="evenodd" class="s0" d="m610.7 233l-67.9-16.1q-33.7-7.8-47.4-25.6-13.7-17.8-13.7-51 0-49.8 27.4-73.3 27.3-23.4 85-23.4 23.9 0 42.8 2.1 18.8 2.3 34.9 6.7v52.7q-27.9-5.4-44.5-7.1-16.6-1.7-34.2-1.7-29.3 0-41.5 9-12.2 9.1-12.2 31.1 0 12.7 5 19.2 5.2 6.6 17.4 9.6l66 15.6q23 5.4 34.2 10.9 11.3 5.7 18.6 14 7.3 9.3 11 23 3.7 13.6 3.7 33.6 0 51.8-27.4 74.3-27.4 22.4-85 22.4-29.9 0-57.4-3.9-27.7-3.9-43.3-9.7v-55.2q21 6.3 47.7 9.9 26.6 3.7 53 3.7 28.8 0 40.3-8.1 11.5-8 11.5-31.4 0-14.7-4.6-21.3-4.7-6.5-19.4-10zm179.8-57.1v178.7h-56.6v-241.2h48.8l2.5 24.4h1.4q17.1-15.1 36.9-22.2 19.8-7.1 46.7-7.1 40.1 0 61.1 20.1 21 20 21 59v167h-56.7v-159.6q0-17.6-11.5-26.6-11.5-9.1-33.9-9.1-16.2 0-31.3 4.1-15.2 4.2-28.4 12.5zm270.7 183.1q-37.1 0-54.5-18.3-17.3-18.3-17.3-57.4 0-40 20.8-56.6 20.8-16.6 71.6-16.6 14.2 0 28.8 1.5 14.7 1.4 25.5 3.9v-20.5q0-19.1-11.8-27.9-11.8-8.8-37.1-8.8-23 0-40.9 1.5-17.8 1.5-34 4.9v-47.4q18.7-4.4 40.4-6.6 21.8-2.2 51.6-2.2 44.5 0 66.4 20.3 22 20.3 22 60.8v165h-52.3l-2.4-21.5h-1.1q-15.5 11.8-35.8 18.8-20.4 7.1-39.9 7.1zm27.4-108.4q-26.3 0-36.1 6.1-9.8 6.1-9.8 23.2 0 16.6 8 23.7 8 7.1 27.6 7.1 14.3 0 30.1-4.2 15.9-4.1 27.7-10.5v-41.5q-11.8-1.9-23.3-2.9-11.4-1-24.2-1zm206.7 48.9h159.8v55.1h-226.8v-55.1l151.5-198.3h-137.3v-52.7h203.3v52.7zm247.3 0h159.8v55.2h-226.8v-55.2l151.5-198.2h-137.3v-52.8h203.3v52.8zm219.9 84.9q18.1 0 26.9-6.5 8.8-6.6 15.1-27.6l-94.8-236.9h63.5l60.1 181.2 57.2-181.2h61.1l-92.4 252q-13.6 37.1-33.5 52.7-19.7 15.7-52 15.7-9.7 0-20-1-10.3-1-18.1-2.5v-47.3q3.9 0.9 9.3 1.2 5.4 0.2 17.6 0.2z"/>
														</g>
													</g>
												</g>
											</g>
										</g>
									</g>
								</g>
							</g>
							<g id="Layer">
								<g id="Layer">
									<g id="Layer">
										<g id="icon-0">
											<path id="Layer" fill-rule="evenodd" class="s1" d="m423 36.9c0-6.5-4.7-18.5-9.1-28.2 5.3 1.2 15.3 9.9 14 11.2-1.2 1.2 5.3 5.9 4.7 8.3-0.6 2.5 3.7 3.8 2.8 6.6-0.9 2.8-1.9 5.6-1.3 8.7 0.7 3.1 0.1 5-3.6 8.1-3.7 3.1-0.7 9.2-0.7 9.2l2.5 6.3c-1.9 5.6-7.8 5.9-7.8 5.9l-5.6 12.4 3.4 3.4c-0.3 7.8-7.1 15.8-7.1 15.8l-5.3-0.3-7.2 12.8 4.1 4c-1.9 11.2-25.8 38.2-25.8 38.2 0 0-4.4-0.6-11.2-0.6-6.8 0-6.8 6.2-6.8 6.2v12.4l-25.2 25.2c-10.9-2.8-9.6 9.6-9.6 9.6l-21.2 21.1-4.3-4.3-10.6-0.7 1.9 18.1-25.5 25.4-5.6-1.8-5.3 5.2 2.2 5.3-16.5 16.5-5.9-0.3-4.5 4 1-22.3v-0.3-0.4c-0.7-4.7-2.7-8.3-6.1-10.8-6-4.4-13.8-3.3-14.6-3.1l-0.4 0.1-35.1 14.1-3.2 1.3c-26 10.3-35.8 14.1-37.9 27.3-0.5 2.6-14.6 74-16.3 81.4-1.4 6-7.8 10.2-16.7 15.9l-2.4 1.5c-6.7 4.3-18.8 10.1-26.4 13.6l-11.1-12.5q0.2-0.1 0.3-0.3c1.2-1.3 5.2-4.9 8.4-4.9h0.4c25.3 0.1 34.9-15.7 38.5-28.9 7.2-26.7 16.8-69.2 16.9-69.6v-0.1c4.1-18.3 19.3-23.7 19.9-23.9l0.2-0.1c2.2-0.9 52.8-20.9 61.2-25 5.5-2.6 8.3-9.1 11.3-16.1 2-4.8 4.2-9.8 7.3-14.1q0.3-0.4 0.7-0.9 0.3-0.4 0.7-0.8 0.4-0.5 0.7-0.9 0.4-0.4 0.8-0.8c9.9-9.9 29.5-14 32.5-13.8 2.6 0.2 5.6-1.3 12.2-9.3q1.4-1.7 2.8-3.4 1.3-1.8 2.6-3.5 1.3-1.8 2.6-3.6 1.3-1.8 2.5-3.6c4.1-6.2 22-16.4 26.9-18.5 4.6-2 22.2-13.1 31.7-22.6 8-8 13.6-9.9 13.6-9.9l1-0.3 0.6-0.7c51.7-53.4 62.4-90.4 62.8-91.9l0.1-0.5q0.1-0.7 0.1-1.5zm-423 196.5c0.5-6.6 3.1-13.5 11-16.8l36.6 5c0 0 15.2-0.9 24.4-4.9l18.3-51c0 0 4.4-25 35.5-43.5l-5.1 23c-0.3 1.6 0.1 3.2 1 4.6 0.9 1.3 2.3 2.3 3.8 2.6 1.6 0.3 3.3 0.1 4.6-0.8 1.4-0.8 2.4-2.2 2.8-3.7l7.2-32.9q0.8-0.3 1.6-0.6 4.2-1.7 9.4-3.8l-4.1 21.8c-0.3 1.6 0 3.3 0.9 4.6 1 1.4 2.4 2.3 4 2.6 1.6 0.3 3.3 0 4.7-0.9 1.3-1 2.3-2.4 2.6-4l5.6-29.4 11.2-4.3-2.8 18.6q-0.2 1 0 2 0.2 0.9 0.6 1.8 0.5 0.9 1.1 1.6 0.7 0.6 1.6 1.1l1.3 16c-3.8 2.5-8 5.8-12.9 10-29.2 25.1-40.7 53.4-43.2 60.6l-114.4 46.8-5.3-10.6c0 0-0.4-1.2-0.8-3zm195.8-96.5c-2.9-1.2-6.4-0.9-10.9 1.1l-1.1-13.2c0.8-0.9 1.4-2.1 1.6-3.4l3.9-25.5 11.5-4.4-1.5 15.4c-0.1 1.7 0.4 3.3 1.5 4.5 1 1.2 2.5 2 4.2 2.2 1.6 0.1 3.2-0.4 4.5-1.4 1.2-1 2-2.5 2.2-4.1l2.1-21.5 11.9-4.5-0.1 12.4c0 1.6 0.7 3.2 1.8 4.3 1.2 1.1 2.7 1.8 4.4 1.8 1.6 0 3.1-0.6 4.3-1.8 1.2-1.1 1.9-2.6 1.9-4.2l0.2-17.2 13.8-5.2 9.5 45.5q0 1.4 0.2 2.7 0.2 1.3 0.4 2.6 0.2 1.3 0.5 2.6 0.3 1.3 0.7 2.5l-61.4 22.6c-0.2-5.2-0.9-11.5-6.1-13.8zm72.3-40.1q-1.5 1.7-2.6 3.4l-6.3-30.1q0-0.3-0.1-0.5c24.7-9.3 44.9-16.8 51.9-19.3zm-98.4 60.8c18-15.4 22.6-14.1 23-13.9 1.5 0.6 1.7 6 1.7 8.6l0.9 30.1-64 26.2c5-11.1 16.5-32.2 38.4-51zm36.4 89.2c-3.8 1.8-16.7 7.1-29.7 12.4l-0.7-13.7v-0.1c-0.4-5-2.3-8.7-5.5-11-5.1-3.5-11.2-1.9-11.9-1.7l-0.3 0.1-35.2 15.7c-26.6 11.9-29 28.3-29.2 30.6l-6.6 44.8q-0.1 0.5-0.1 1 0.1 0.5 0.3 0.9 0.2 0.5 0.5 0.9 0.3 0.4 0.7 0.7l-0.9 0.9q-1.8 1.8-3.7 3.7-1.8 1.8-3.7 3.7-1.8 1.8-3.6 3.7-1.8 1.9-3.6 3.8l-5.6-38-0.1-0.4c-1-3.8-5.7-10.6-16.2-9.6l-0.3 0.1-37.3 10.4-13.5-35.2 207.5-85c6.3-2.6 11.2-3 13.9-1.3 2.4 1.7 2.7 5 2.7 5.6l-2.2 24.4q0 0.4 0.1 0.9 0 0.4 0.2 0.8 0.2 0.4 0.4 0.8 0.3 0.4 0.6 0.6-0.6 0.8-1.2 1.6c-3.6 5-6 10.6-8.1 15.6-2.4 5.6-4.7 10.8-7.7 12.3zm-133.4 146.8h-0.5c-7 0-13.2 6.6-13.9 7.4q-0.1 0.1-0.2 0.2-0.1 0.2-0.2 0.3-0.1 0.2-0.2 0.4 0 0.1-0.1 0.3l-1.6-0.6-10.1-13.5 10.2-12.1 0.3-0.3c3.6-5.4 7.1-10.2 10.4-14.2 8.3-10.5 19.4-21.4 26-27.9 1.1-1.1 2.1-2 2.8-2.8 0.6-0.4 2.8-1.3 4.6-1.9 4.3-1.6 10.5-3.9 16-8.1-3.5 14.7-8.3 34.5-12.3 49.4-6.3 23.5-25.1 23.4-31.2 23.4zm25-71.8q-1.7 0.6-3.1 1.2l6.4-42.9v-0.3c0.1-0.6 1.3-13.9 24.9-24.4l34.6-15.5c1-0.2 3.7-0.5 5.4 0.7 1.3 0.9 2.1 2.7 2.4 5.3l0.6 13.9q0 0.3 0.1 0.6 0 0.2 0.1 0.5 0.1 0.3 0.2 0.5 0.2 0.2 0.3 0.5c-12.2 4.9-23 9.2-24.1 9.6-1.8 0.6-19.8 7.4-24.7 29.4-3 13.5-15.1 18-23.1 20.9zm287-321.6c4-0.5 10.7-0.7 17.5 1.5 6.3 12.7 13.6 29.9 13.2 35.3-0.7 2.3-6.3 19.2-24.7 45.3q-0.3-0.2-0.6-0.2-0.3-0.1-0.7-0.1-0.3 0-0.6 0.1-0.4 0-0.7 0.1l-15.9 5.9c-4.5-4.4-17-13-40.5-4.8-0.5 0.1-3.8 1.1-8.6 2.8-0.6-0.1-2.2-0.9-2.8-2.4-1-2.4 1.3-5.1 2.8-6.5 0.4-0.4 37.1-35.6 61.1-74.4q0.2-0.3 0.3-0.5 0.1-0.2 0.1-0.5 0.1-0.2 0.1-0.5 0.1-0.2 0.1-0.5 0-0.3-0.1-0.6zm-332.6 368.6l-9.1-35-14.2-14.2-4.7-8.9 27.9-8.1c5.9-0.4 7.6 3 8 4l5.9 40.4q0 0.4 0.1 0.7 0.1 0.3 0.3 0.6 0.2 0.3 0.4 0.6 0.2 0.3 0.5 0.5c-2.2 2.4-4.3 4.9-6.3 7.4-2.8 3.5-5.8 7.5-8.8 12zm174.2-90.6l-1.7 37.1-24.6 24.6-2.5-2.5-14.6 14.6 2.5 2.5-19 18.9-2.8-2.8-13.7 13.7 0.5 5.1c-35.6 35.6-64.8 41.8-64.8 41.8l-5.8-6.5c7.8-3.7 18.8-9 25.3-13.2l2.4-1.6c10-6.4 17.9-11.5 20-20.4 1.8-8.1 15.9-79.5 16.3-82 1.4-8.6 7.6-11.3 33.3-21.5l37.5-15.1c1.3-0.2 5.7-0.4 8.7 1.8 1.6 1.2 2.6 3 3 5.5zm-122.3-147.4c-8.2-2.5-25.1-8.8-34.8-20.8l0.8 0.1c11.1 1.2 34.4 4.7 51.3 7.3q-2.4 1.4-4.6 3-2.3 1.5-4.5 3.2-2.1 1.7-4.2 3.5-2.1 1.8-4 3.7zm159.4 67.8c-5.3 0-22.4 4-33.8 12.5l1.9-20.8v-0.3c0-0.6-0.1-7.9-6-11.9-4.9-3.3-11.9-3.2-20.9 0.5l-1.9 0.8-0.6-21 181.6-66.6q-3.4 4.4-6.8 8.6-3.5 4.2-7 8.4-3.6 4.1-7.3 8.1-3.7 4.1-7.5 8c-2.3 0.9-8.1 3.8-15.7 11.4-8.8 8.8-25.7 19.4-29.3 21-4 1.7-24.5 12.6-30.3 21.2-6.2 9.3-13.8 18.6-16.4 20.1zm62-105.4c5.1-1.7 8.5-2.8 8.6-2.8l0.1-0.1c15.7-5.5 25.1-2.3 29.9 0.8l-93.7 34.4c-0.6-2.1-1.2-5-1.4-8.1v-0.1q0-0.2 0-0.3c-0.3-5.1 0.6-10.9 4.6-15.2l44.5-48.3c0.5-0.5 0.8-1.1 0.9-1.7 0.1-0.7 0.1-1.4-0.1-2-0.2-0.6-0.6-1.2-1.1-1.6-0.6-0.5-1.2-0.8-1.8-0.9 8.8-7.2 40.6-32.5 58.5-43-23.4 35.8-56.1 67.2-56.4 67.5-2.1 1.9-8.3 8.8-3.9 16.2 2.5 4.1 7.6 6.4 11.3 5.2zm-265.5 16.4c5.2 8.8 14.4 16.5 26.8 22.5q1.4 0.7 2.8 1.3 1.5 0.6 3 1.2 1.4 0.6 2.9 1.2 1.5 0.5 3 1c-7.5 9.1-11.3 17.5-13 22.6l-33.5-33.5-0.2-0.2c-1.6-1.4-3.9-4.5-3.9-6.6 0-0.4 0.1-0.9 0.7-1.7q1-1 1.8-2c3.2-3.7 4.8-5.5 9.6-5.8z"/>
										</g>
									</g>
								</g>
							</g>
						</g>
					</g>
				</g>
			</g>
		</g>
	</g>
</svg>