<svg xmlns="http://www.w3.org/2000/svg" version="1.1" xmlns:xlink="http://www.w3.org/1999/xlink" xmlns:svgjs="http://svgjs.dev/svgjs" width="197" height="50" viewBox="0 0 2000 434"><g transform="matrix(1,0,0,1,-1.2121212121213603,-1.3370382500034452)"><svg viewBox="0 0 396 86" data-background-color="#1d2533" preserveAspectRatio="xMidYMid meet" height="434" width="2000" xmlns="http://www.w3.org/2000/svg" xmlns:xlink="http://www.w3.org/1999/xlink"><g id="tight-bounds" transform="matrix(1,0,0,1,0.24000000000003752,0.26494306336473983)"><svg viewBox="0 0 395.5199999999999 85.4701138732705" height="85.4701138732705" width="395.5199999999999"><g><svg viewBox="0 0 537.5137681791186 116.154336" height="85.4701138732705" width="395.5199999999999"><g transform="matrix(1,0,0,1,141.9937681791187,5.547168000000006)"><svg viewBox="0 0 395.5199999999999 105.05999999999999" height="105.05999999999999" width="395.5199999999999"><g id="textblocktransform"><svg viewBox="0 0 395.5199999999999 105.05999999999999" height="105.05999999999999" width="395.5199999999999" id="textblock"><g><svg viewBox="0 0 395.5199999999999 105.05999999999999" height="105.05999999999999" width="395.5199999999999"><g transform="matrix(1,0,0,1,0,0)"><svg width="395.5199999999999" viewBox="1.8 -31.85 150.39 39.95" height="105.05999999999999" data-palette-color="#ffffff"><path d="M15-12.45L15-12.45 8.05-14.1Q4.6-14.9 3.2-16.73 1.8-18.55 1.8-21.95L1.8-21.95Q1.8-27.05 4.6-29.45 7.4-31.85 13.3-31.85L13.3-31.85Q15.75-31.85 17.68-31.63 19.6-31.4 21.25-30.95L21.25-30.95 21.25-25.55Q18.4-26.1 16.7-26.28 15-26.45 13.2-26.45L13.2-26.45Q10.2-26.45 8.95-25.53 7.7-24.6 7.7-22.35L7.7-22.35Q7.7-21.05 8.22-20.38 8.75-19.7 10-19.4L10-19.4 16.75-17.8Q19.1-17.25 20.25-16.68 21.4-16.1 22.15-15.25L22.15-15.25Q22.9-14.3 23.28-12.9 23.65-11.5 23.65-9.45L23.65-9.45Q23.65-4.15 20.85-1.85 18.05 0.45 12.15 0.45L12.15 0.45Q9.1 0.45 6.28 0.05 3.45-0.35 1.85-0.95L1.85-0.95 1.85-6.6Q4-5.95 6.73-5.58 9.45-5.2 12.15-5.2L12.15-5.2Q15.1-5.2 16.28-6.03 17.45-6.85 17.45-9.25L17.45-9.25Q17.45-10.75 16.98-11.43 16.5-12.1 15-12.45ZM33.4-18.3L33.4 0 27.6 0 27.6-24.7 32.6-24.7 32.85-22.2 33-22.2Q34.75-23.75 36.77-24.48 38.8-25.2 41.55-25.2L41.55-25.2Q45.65-25.2 47.8-23.15 49.95-21.1 49.95-17.1L49.95-17.1 49.95 0 44.15 0 44.15-16.35Q44.15-18.15 42.97-19.07 41.8-20 39.5-20L39.5-20Q37.85-20 36.3-19.58 34.75-19.15 33.4-18.3L33.4-18.3ZM61.09 0.45L61.09 0.45Q57.3 0.45 55.52-1.43 53.75-3.3 53.75-7.3L53.75-7.3Q53.75-11.4 55.87-13.1 58-14.8 63.2-14.8L63.2-14.8Q64.65-14.8 66.15-14.65 67.65-14.5 68.75-14.25L68.75-14.25 68.75-16.35Q68.75-18.3 67.55-19.2 66.34-20.1 63.75-20.1L63.75-20.1Q61.4-20.1 59.57-19.95 57.75-19.8 56.09-19.45L56.09-19.45 56.09-24.3Q58-24.75 60.22-24.98 62.45-25.2 65.5-25.2L65.5-25.2Q70.05-25.2 72.3-23.13 74.55-21.05 74.55-16.9L74.55-16.9 74.55 0 69.2 0 68.95-2.2 68.84-2.2Q67.25-1 65.17-0.28 63.09 0.45 61.09 0.45ZM63.9-10.65L63.9-10.65Q61.2-10.65 60.2-10.03 59.2-9.4 59.2-7.65L59.2-7.65Q59.2-5.95 60.02-5.23 60.84-4.5 62.84-4.5L62.84-4.5Q64.3-4.5 65.92-4.93 67.55-5.35 68.75-6L68.75-6 68.75-10.25Q67.55-10.45 66.37-10.55 65.2-10.65 63.9-10.65ZM85.04-5.65L101.39-5.65 101.39 0 78.19 0 78.19-5.65 93.69-25.95 79.64-25.95 79.64-31.35 100.44-31.35 100.44-25.95 85.04-5.65ZM110.34-5.65L126.69-5.65 126.69 0 103.49 0 103.49-5.65 118.99-25.95 104.94-25.95 104.94-31.35 125.74-31.35 125.74-25.95 110.34-5.65ZM132.84 3.05L132.84 3.05Q134.69 3.05 135.59 2.38 136.49 1.7 137.14-0.45L137.14-0.45 127.44-24.7 133.94-24.7 140.09-6.15 145.94-24.7 152.19-24.7 142.74 1.1Q141.34 4.9 139.31 6.5 137.29 8.1 133.99 8.1L133.99 8.1Q132.99 8.1 131.94 8 130.89 7.9 130.09 7.75L130.09 7.75 130.09 2.9Q130.49 3 131.04 3.03 131.59 3.05 132.84 3.05Z" opacity="1" transform="matrix(1,0,0,1,0,0)" fill="#ffffff" class="wordmark-text-0" data-fill-palette-color="primary" id="text-0"></path></svg></g></svg></g></svg></g></svg></g><g><svg viewBox="0 0 117.1916236191187 116.154336" height="116.154336" width="117.1916236191187"><g><svg xmlns="http://www.w3.org/2000/svg" xmlns:xlink="http://www.w3.org/1999/xlink" version="1.1" x="0" y="0" viewBox="11.343 11.638531679919637 67.31831684962178 66.72246832008037" enable-background="new 0 0 90 90" xml:space="preserve" height="116.154336" width="117.1916236191187" class="icon-icon-0" data-fill-palette-color="accent" id="icon-0"><path d="M27.437 31.888C26.172 31.508 23.56 30.538 22.061 28.673L22.181 28.686C23.894 28.876 27.508 29.417 30.108 29.817A14.7 14.7 0 0 0 27.437 31.888M19.139 29.508C19.053 29.607 18.962 29.712 18.864 29.822 18.76 29.939 18.746 30.021 18.746 30.086 18.746 30.407 19.107 30.884 19.35 31.105L19.388 31.141 24.565 36.318C24.833 35.524 25.407 34.223 26.573 32.826A16 16 0 0 1 24.757 32.09C22.845 31.172 21.431 29.978 20.616 28.605 19.877 28.658 19.633 28.938 19.139 29.508M42.566 34.951L52.048 31.469A7.5 7.5 0 0 1 51.772 29.86L50.315 22.817 48.169 23.622 48.148 26.276A0.963 0.963 0 0 1 46.223 26.268V26.26L46.238 24.348 44.399 25.041 44.084 28.368A0.963 0.963 0 0 1 42.167 28.187L42.393 25.8 40.614 26.475 40.017 30.431C39.987 30.631 39.897 30.807 39.769 30.944L39.93 32.992C40.628 32.68 41.175 32.633 41.619 32.829 42.432 33.186 42.534 34.157 42.566 34.951M59.424 19.422C58.354 19.819 55.224 20.981 51.402 22.411 51.412 22.438 51.422 22.466 51.429 22.496L52.393 27.154C52.509 26.972 52.642 26.795 52.799 26.627zM31.651 43.927L41.55 39.87 41.419 35.211C41.406 34.813 41.378 33.985 41.155 33.887 41.083 33.856 40.374 33.649 37.588 36.045 34.211 38.949 32.427 42.205 31.651 43.927M44.404 47.929C44.732 47.16 45.104 46.289 45.67 45.517 45.731 45.434 45.792 45.356 45.854 45.279A0.58 0.58 0 0 1 45.652 44.788L45.99 41.023C45.985 40.927 45.94 40.409 45.563 40.159 45.157 39.889 44.398 39.956 43.427 40.35L11.343 53.499 13.431 58.946 19.196 57.333 19.246 57.328C20.867 57.168 21.596 58.222 21.755 58.801L21.77 58.871 22.624 64.75A84 84 0 0 1 24.894 62.443L25.034 62.305A0.57 0.57 0 0 1 24.804 61.758L25.827 54.837C25.859 54.479 26.231 51.946 30.352 50.106L35.788 47.672 35.829 47.66C35.935 47.63 36.887 47.384 37.667 47.925 38.17 48.274 38.458 48.844 38.522 49.617L38.523 49.637 38.623 51.748C40.633 50.937 42.64 50.114 43.221 49.834 43.686 49.611 44.035 48.794 44.404 47.929M27.429 68.923C28.049 66.622 28.788 63.552 29.32 61.287 28.468 61.933 27.518 62.285 26.858 62.529 26.578 62.633 26.23 62.761 26.145 62.829 26.028 62.946 25.877 63.096 25.705 63.265 24.684 64.272 22.975 65.959 21.681 67.577 21.181 68.202 20.643 68.941 20.08 69.774L20.042 69.825 18.454 71.697 20.013 73.781 20.265 73.873A0.6 0.6 0 0 1 20.378 73.684C20.483 73.568 21.436 72.547 22.526 72.547H22.593C23.548 72.551 26.449 72.559 27.429 68.923M30.034 58.205L30.035 58.202V58.201C30.796 54.808 33.581 53.753 33.856 53.656 34.018 53.592 35.688 52.929 37.586 52.166A0.57 0.57 0 0 1 37.472 51.848L37.37 49.702C37.335 49.295 37.213 49.016 37.008 48.874 36.738 48.687 36.325 48.732 36.176 48.764L30.825 51.16C27.179 52.788 26.986 54.849 26.979 54.936L26.974 54.986 25.993 61.622C26.133 61.565 26.287 61.508 26.458 61.444 27.695 60.988 29.565 60.296 30.034 58.205M70.839 11.781A0.6 0.6 0 0 1 70.753 12.084C67.042 18.099 61.366 23.545 61.309 23.6 61.08 23.818 60.718 24.237 60.868 24.601 60.965 24.836 61.215 24.963 61.312 24.971 62.053 24.721 62.555 24.564 62.634 24.539 66.266 23.269 68.191 24.602 68.888 25.287L71.358 24.38A0.57 0.57 0 0 1 71.754 24.382C74.597 20.346 75.459 17.734 75.567 17.383 75.636 16.546 74.502 13.888 73.525 11.922 72.483 11.578 71.447 11.614 70.831 11.687 70.836 11.717 70.839 11.749 70.839 11.781M20.779 66.856C21.087 66.471 21.416 66.085 21.753 65.705A0.57 0.57 0 0 1 21.542 65.339L20.634 59.085C20.578 58.932 20.316 58.403 19.408 58.474L15.086 59.722 15.818 61.101 18.012 63.295 19.411 68.711C19.887 68.019 20.346 67.397 20.779 66.856M45.873 53.841C45.41 53.497 44.728 53.54 44.533 53.561L38.737 55.894C34.758 57.475 33.811 57.899 33.594 59.23 33.532 59.609 31.354 70.655 31.065 71.91 30.746 73.293 29.525 74.077 27.98 75.07L27.612 75.307C26.605 75.958 24.908 76.786 23.701 77.349L24.594 78.361S29.11 77.4 34.618 71.892L34.538 71.107 36.652 68.993 37.084 69.425 40.014 66.495 39.63 66.111 41.888 63.853 42.272 64.237 46.076 60.433 46.338 54.69C46.276 54.306 46.124 54.028 45.873 53.841M76.709 17.573L76.693 17.651C76.627 17.89 74.979 23.604 66.995 31.877L66.89 31.986 66.745 32.029C66.742 32.03 65.881 32.318 64.634 33.566 63.171 35.029 60.454 36.747 59.745 37.051 58.983 37.378 56.217 38.957 55.579 39.915A28 28 0 0 1 53.964 42.095C52.93 43.342 52.472 43.569 52.068 43.533 51.611 43.506 48.579 44.145 47.052 45.672A4.5 4.5 0 0 0 46.602 46.2C46.115 46.864 45.785 47.636 45.467 48.382 45.01 49.453 44.578 50.464 43.723 50.875 42.422 51.501 34.602 54.603 34.27 54.735L34.24 54.746C34.143 54.779 31.799 55.613 31.162 58.455V58.456C31.147 58.522 29.657 65.097 28.546 69.223 27.994 71.273 26.512 73.713 22.593 73.702H22.529C22.038 73.702 21.416 74.263 21.237 74.459 21.222 74.475 21.205 74.488 21.189 74.502L22.903 76.445C24.086 75.899 25.955 75.003 26.985 74.337L27.357 74.098C28.734 73.214 29.728 72.575 29.941 71.651 30.208 70.493 32.387 59.453 32.456 59.044 32.787 57.017 34.292 56.419 38.313 54.821L38.809 54.624 44.229 52.44 44.29 52.43C44.424 52.407 45.628 52.227 46.555 52.909 47.077 53.293 47.391 53.858 47.49 54.588L47.497 54.639 47.495 54.691 47.338 58.136 48.037 57.515 48.95 57.563 51.496 55.017 51.16 54.2 51.977 53.383 52.842 53.671 56.781 49.732 56.493 46.946 58.126 47.042 58.799 47.715 62.066 44.448S61.874 42.526 63.555 42.959L67.446 39.068V37.146S67.446 36.185 68.503 36.185 70.232 36.281 70.232 36.281 73.931 32.102 74.219 30.372L73.595 29.747 74.7 27.777 75.517 27.825S76.574 26.576 76.622 25.375L76.094 24.847 76.959 22.925S77.872 22.877 78.16 22.012L77.776 21.051S77.312 20.106 77.888 19.626 78.545 18.841 78.449 18.361 78.497 17.448 78.641 17.016 78.113 16.391 78.209 16.007 77.296 14.902 77.488 14.71C77.677 14.521 76.145 13.169 75.318 12.989 75.997 14.489 76.727 16.336 76.727 17.352 76.722 17.432 76.718 17.505 76.709 17.573M54.617 39.274C55.502 37.946 58.676 36.252 59.29 35.989 59.851 35.748 62.461 34.105 63.817 32.749 64.997 31.569 65.898 31.124 66.255 30.98A60 60 0 0 0 70.666 25.865L42.602 36.168 42.693 39.402 42.992 39.279C44.378 38.718 45.463 38.694 46.219 39.206 47.131 39.825 47.147 40.963 47.147 41.042V41.045L47.145 41.093 46.855 44.321C48.617 43 51.256 42.373 52.075 42.377 52.475 42.153 53.659 40.71 54.617 39.274M59.916 25.271C59.226 24.128 60.197 23.063 60.511 22.764 60.564 22.714 65.618 17.862 69.236 12.317 66.469 13.944 61.559 17.868 60.186 18.978A0.579 0.579 0 0 1 60.518 19.938L53.645 27.412C53.024 28.078 52.884 28.97 52.922 29.76 52.923 29.773 52.926 29.787 52.926 29.8L52.925 29.812C52.954 30.3 53.048 30.746 53.136 31.07L67.626 25.75C66.886 25.273 65.434 24.781 63.006 25.633L62.986 25.64C62.981 25.642 62.448 25.807 61.658 26.074 61.083 26.267 60.301 25.907 59.916 25.271M11.521 49.67C11.589 49.962 11.649 50.142 11.649 50.142L12.474 51.787 30.147 44.544C30.544 43.433 32.321 39.05 36.834 35.17 37.586 34.523 38.243 34.011 38.82 33.625L38.625 31.145A0.97 0.97 0 0 1 38.112 30.145L38.546 27.265 36.814 27.931 35.95 32.478A0.963 0.963 0 0 1 34.058 32.118L34.698 28.753C34.168 28.961 33.679 29.154 33.239 29.33 33.158 29.362 33.079 29.395 32.999 29.429L31.885 34.514A0.964 0.964 0 0 1 30.003 34.102L30.785 30.535C25.975 33.399 25.296 37.273 25.296 37.273L22.467 45.154C21.044 45.773 18.708 45.911 18.708 45.911L13.05 45.139C11.829 45.654 11.426 46.725 11.35 47.744" fill="#7700ff" data-fill-palette-color="accent"></path></svg></g></svg></g></svg></g><defs></defs></svg><rect width="395.5199999999999" height="85.4701138732705" fill="none" stroke="none" visibility="hidden"></rect></g></svg></g></svg>